<?xml version="1.0" encoding="UTF-8"?>
<svg id="Layer_1" xmlns="http://www.w3.org/2000/svg" version="1.1" viewBox="0 0 867 969.25">
  <!-- Generator: Adobe Illustrator 29.1.0, SVG Export Plug-In . SVG Version: 2.1.0 Build 142)  -->
  <defs>
    <style>
      .st0 {
        fill: #fff;
      }
    </style>
  </defs>
  <polyline class="st0" points="823.21 170.42 372.14 38.37 276.1 113.24 384.11 146.82 403.47 130.99 631.64 201.07 594.08 235.14 256.17 128.77 42.49 295.34 516.55 464.95 599.61 385.17 241.32 263.52 283.45 229.09 639.45 346.91 823.21 170.42"/>
  <polyline class="st0" points="570.05 913.22 835.55 612.89 835.56 364.39 629.3 578.44 626.73 523.77 835.56 311.21 835.57 201.12 542.1 487.68 560.22 763.5 771.69 535.87 772.41 585.93 636.66 734.58 635.47 709.35 561.91 789.22 570.05 913.22"/>
  <polyline class="st0" points="110.09 744.4 536.8 930.01 517.44 669.22 172.79 534.01 164.59 479.37 513.26 612.93 504.57 495.84 37.99 326.11 84.63 596.71 408.76 729.62 413.98 781.3 196.2 690.14 192.42 664.9 89 622.05 110.09 744.4"/>
</svg>